<svg width="92" height="18" viewBox="0 0 92 18" fill="none" xmlns="http://www.w3.org/2000/svg">
<path d="M38.5695 14.449L29.9378 5.50252V14.449H28.0675V3.54245H30.3879L39.0056 12.489V3.54245H40.8759V14.449H38.5695Z" fill="#3337A1"/>
<path d="M44.6488 14.449V7.98299H46.5191H50.7979H53.1247V9.61274H46.5191V12.8193H56.4549V14.449H44.6488ZM44.6488 5.16597V3.54245H56.0177V5.16597H50.7979H46.5191H44.6488Z" fill="#3337A1"/>
<path d="M67.8915 8.66231C68.6016 8.66231 69.1398 8.51689 69.5082 8.22709C69.8767 7.93728 70.0604 7.52076 70.0604 6.97335C70.0604 5.77259 69.2826 5.16597 67.7196 5.16597H62.1517H61.1483H60.9571V8.66335H61.1483H62.1517H67.8915V8.66231ZM59.2791 5.16597V3.54245H60.9582H68.1708C69.3654 3.54245 70.3 3.84576 70.9682 4.45964C71.6364 5.07353 71.978 5.91074 71.978 6.97335C71.978 7.45532 71.9028 7.88431 71.7599 8.25306C71.6095 8.62907 71.4054 8.94588 71.139 9.20972C70.8801 9.47979 70.5653 9.69169 70.2044 9.84957C69.8499 10.0147 69.461 10.1269 69.0442 10.1996L72.0671 14.449H69.9046L66.8473 10.2921H61.1494V14.449H59.2802V9.49433V8.66335V5.16597H59.2791Z" fill="#3337A1"/>
<path d="M76.851 3.54245H74.9818V14.449H76.851V3.54245Z" fill="#3337A1"/>
<path d="M82.494 7.98299H89.0996V9.61274H82.494V14.449H80.6248V7.98299H82.494ZM80.6248 5.16597V3.54245H92.0001V5.16597H82.495H80.6248Z" fill="#3337A1"/>
<path fill-rule="evenodd" clip-rule="evenodd" d="M23.1963 12.4067C21.4469 3.46411 11.3758 -0.923007 4.46528 4.99911C2.28523 6.91995 0.783793 9.52344 0.193301 12.4067H0C0 9.22865 1.23213 6.18075 3.42532 3.93353C5.61852 1.68631 8.59314 0.423828 11.6948 0.423828C14.7964 0.423828 17.7711 1.68631 19.9643 3.93353C22.1575 6.18075 23.3896 9.22865 23.3896 12.4067H23.1963ZM6.63988 6.75199C7.15456 8.48963 7.52349 10.2686 7.74289 12.0696C9.10403 13.0031 10.4246 13.9971 11.7008 15.0485C12.9778 14.0063 14.2961 13.0181 15.6523 12.0863C15.8887 10.2799 16.2685 8.4959 16.7883 6.75199H16.9816L17.0299 12.8524V12.9118H16.9816L11.859 17.4177L11.6947 17.5762L11.5691 17.4672L6.44658 12.9613H6.39825V12.9019L6.44658 6.8015L6.63988 6.75199ZM13.6277 6.08846C13.6277 7.18234 12.7622 8.0691 11.6947 8.0691C10.6271 8.0691 9.76165 7.18234 9.76165 6.08846C9.76165 4.99458 10.6271 4.10782 11.6947 4.10782C12.7622 4.10782 13.6277 4.99458 13.6277 6.08846Z" fill="#3337A1"/>
</svg>
